<!-- Generated by IcoMoon.io -->
<svg version="1.1" xmlns="http://www.w3.org/2000/svg" width="2718" height="1024" viewBox="0 0 2718 1024">
<title></title>
<g id="icomoon-ignore">
</g>
<path fill="#fafafa" d="M341.827 345.847c0.622-3.516 1.315-7.072 2.089-10.628 0.764-3.536 1.63-7.062 2.548-10.506 0.937-3.505 1.946-6.96 3.016-10.282 1.080-3.332 2.221-6.573 3.444-9.762 1.264-3.281 2.578-6.501 3.913-9.62 1.315-3.067 2.66-6.043 4.107-9.039 2.751-5.757 5.615-11.26 8.651-16.59 2.741-4.952 5.391-9.395 7.979-13.349 2.476-3.791 4.871-7.143 7.184-10.078 2.15-2.731 4.219-5.115 6.247-7.194 3.719-3.801 7.327-6.94 10.689-9.293 2.925-2.038 5.808-3.658 8.132-4.647 2.456-0.958 4.84-1.63 7.103-1.997 1.763-0.296 3.393-0.336 5.044-0.143 4.28 0.499 8.397 1.732 11.933 3.556 3.19 1.651 5.829 3.679 7.846 6.022 0.825 0.958 1.488 1.967 2.038 3.026 0.693 1.396 1.274 2.976 1.722 4.779 0.55 2.099 0.897 4.494 1.050 7.164 0.183 2.935 0.082 6.206-0.316 9.701-1.070 9.721 4.912 18.801 14.256 21.685 9.344 2.894 19.443-1.304 24.028-9.925 0.020-0.031 1.702-3.169 5.115-8.009 1.641-2.486 3.709-5.391 6.318-8.56 3.179-3.842 6.838-7.826 10.914-11.882 2.272-2.262 4.728-4.545 7.266-6.736 2.619-2.252 5.401-4.453 8.346-6.634 3.159-2.334 6.471-4.667 10.16-7.113 3.495-2.354 7.286-4.769 11.484-7.255 4.504-2.67 8.927-4.932 13.502-6.94 4.728-2.069 10.037-3.781 15.081-4.932 6.043-1.141 11.841-1.763 16.641-1.855 4.749 0.061 9.548 0.673 13.777 1.692 3.302 0.897 6.104 1.987 8.325 3.251 1.865 1.050 3.414 2.201 4.586 3.373 2.456 2.466 4.29 5.442 5.309 8.203 1.101 3.587 1.467 7.551 1.141 11.281-0.224 1.936-0.673 3.964-1.325 5.88-0.632 1.885-1.457 3.699-2.466 5.401-2.109 3.607-4.738 7.327-7.806 11.077-2.812 3.006-5.462 5.513-7.765 7.581-4.402 3.944-8.244 6.705-8.254 6.705-7.908 5.615-10.751 16.029-6.817 24.895 3.944 8.865 13.624 13.726 23.081 11.617 0.234-0.061 1.743-0.387 4.321-0.825 3.139-0.54 7.704-1.253 12.524-1.783 3.006-0.194 6.328-0.316 9.844-0.428 3.505-0.122 7.541-0.041 11.128-0.234 3.485 0.010 7.357 0.122 11.077 0.397 3.811 0.285 7.592 0.703 11.219 1.192 3.424 0.459 6.654 0.999 9.701 1.651 2.629 0.571 5.105 1.274 6.736 1.844 4.616 1.824 8.692 3.944 12.045 6.247 3.281 2.262 5.931 4.565 8.081 7.011 2.058 2.354 3.618 4.728 4.494 6.695 0.825 2.007 1.243 3.791 1.284 5.024 0.010 1.926-0.255 3.893-0.785 5.839-0.53 1.916-1.325 3.77-2.018 5.014-1.090 1.753-2.609 3.526-4.229 5.014-1.345 1.202-2.823 2.374-4.229 3.414-1.671 1.192-3.465 2.354-5.35 3.475-2.16 1.274-4.412 2.486-6.766 3.74l-7.357 3.903c-4.759 2.568-8.865 4.769-11.8 6.298l-4.708 2.446c0 0-2.058 1.060-5.717 3.037l-6.359 3.495c-2.548 1.427-5.401 3.098-9.039 5.299-1.050 0.683-2.099 1.437-3.149 2.14-1.763-1.783-3.505-3.556-5.289-5.37-5.075-5.166-10.129-10.323-15.357-15.448-7.734-7.51-14.419-13.329-20.992-18.302-9.059-6.858-18.862-12.992-29.134-18.251-10.649-5.431-21.389-9.813-31.753-12.982-5.574-1.743-11.128-3.139-16.498-4.147-5.533-1.039-11.25-1.773-17.018-2.171-5.91-0.418-11.79-0.489-17.945-0.255-6.481 0.255-13.043 0.897-20.064 1.977-7.103 1.090-14.796 2.67-23.274 4.81-4.158 1.121-8.458 2.405-12.87 3.872-4.473 1.498-9.039 3.2-13.706 5.115-0.316 0.132-0.632 0.275-0.948 0.418l-21.43 10.139c-7.337 3.791-15.581 8.213-25.19 13.563-9.059 5.054-19.473 11.077-30.907 17.945 0.163-1.386 0.296-2.843 0.469-4.178 0.489-3.526 1.029-7.052 1.641-10.557zM809.831 577.683c-38.335-11.311-101.372-24.212-165.763-12.84-29.602 4.443-49.911 8.468-69.558 12.361l-4.545 0.897c-6.899 1.457-14.154 2.884-21.359 4.31 0.724-1.223 1.447-2.384 2.16-3.648 1.722-3.037 3.404-6.165 5.014-9.344 1.641-3.24 3.2-6.532 4.647-9.813 1.549-3.485 2.904-6.97 4.178-10.526 1.223-3.424 2.334-6.868 3.312-10.292 0.999-3.485 1.875-6.95 2.588-10.312 0.764-3.475 1.386-6.929 1.865-10.312 0.937-6.634 1.467-13.166 1.579-19.422 0.010-0.744 0.020-1.498 0.020-2.221l1.987-1.447c2.945-2.13 5.798-4.209 8.58-6.461 3.414-2.812 6.675-5.554 10.221-8.57 3.159-2.67 6.247-5.299 9.283-8.030 3.393-3.037 6.726-6.328 10.262-10.037 3.077-3.281 6.206-6.695 9.395-10.251l9.946-10.954c2.028-2.221 4.188-4.392 6.318-6.583 17.293 15.326 36.522 29.124 60.336 38.437 68.264 26.719 97.316 73.349 109.534 105.061zM529.937 475.048c-1.131 0.459-2.211 0.856-3.19 1.182-3.271 0.937-6.695 1.62-10.149 2.058-3.404 0.428-6.807 0.652-10.465 0.611-3.434-0.010-6.929-0.285-10.374-0.805-3.332-0.499-6.552-1.294-9.324-2.303-1.885-0.683-3.587-1.579-5.075-2.66-1.386-1.355-2.639-2.955-3.719-4.779-1.151-1.967-1.967-4.147-2.283-5.717-0.387-2.578-0.275-5.258 0.173-7.276 0.785-3.047 2.018-5.706 3.648-7.908 0.927-1.243 1.987-2.364 3.19-3.373 1.172-0.988 2.486-1.855 3.913-2.588 2.262-1.172 4.728-1.895 7.306-2.15 1.987-0.204 4.168-0.082 6.399 0.357 2.476 0.479 4.932 1.315 7.327 2.497 2.598 1.274 5.065 2.914 7.337 4.871 2.446 2.109 4.698 4.626 6.695 7.48 1.447 2.058 2.782 4.31 3.974 6.695 1.253 2.507 2.334 5.115 3.037 7.113 0.56 1.885 0.948 3.77 1.579 6.695zM415.4 570.51c-3.373-2.262-6.654-4.677-9.813-7.225l-13.685-12.35c-6.776-7.011-12.911-14.918-18.689-24.1-2.996-4.779-5.931-9.925-8.702-15.285-3.016-5.819-5.9-11.831-8.55-17.894-1.355-3.088-2.69-6.359-3.984-9.823-1.315-3.475-2.578-7.153-3.791-11.036-1.213-3.923-2.384-8.101-3.485-12.503-1.101-4.514-2.16-9.273-3.077-14.032-0.968-5.411-1.702-10.639-2.221-15.886-0.51-5.279-0.825-11.189-0.958-17.537-0.031-1.172-0.051-2.354-0.051-3.536 6.838-4.351 13.777-8.651 20.554-12.738 11.739-7.092 22.316-13.186 31.518-18.322 9.171-5.115 17.058-9.334 23.407-12.636l20.309-9.589c3.607-1.467 7.153-2.782 10.608-3.944 3.668-1.223 7.245-2.283 10.302-3.118 6.848-1.722 13.288-3.047 19.137-3.944 5.482-0.846 10.547-1.345 15.479-1.539 4.677-0.183 9.079-0.122 13.533 0.183 4.229 0.296 8.234 0.805 12.3 1.569 3.821 0.724 7.806 1.722 11.994 3.037 8.223 2.507 16.722 5.992 25.241 10.333 8.152 4.168 15.917 9.028 23.091 14.46 5.217 3.954 10.7 8.743 17.119 14.98 4.952 4.84 9.823 9.813 15.092 15.183 0.856 0.876 1.732 1.763 2.598 2.639-2.395 2.456-4.83 4.901-7.113 7.408l-10.16 11.179c-3.047 3.404-5.992 6.613-8.713 9.528-2.629 2.741-5.217 5.329-7.867 7.714-2.762 2.476-5.574 4.851-8.825 7.612-0.825 0.703-1.651 1.406-2.486 2.109-1.121-2.853-2.374-5.676-3.75-8.417-2.079-4.147-4.443-8.122-7.001-11.8-3.933-5.625-8.478-10.659-13.482-14.99-4.901-4.229-10.292-7.785-16.009-10.598-5.605-2.751-11.484-4.749-17.486-5.91-6.124-1.192-12.269-1.498-18.22-0.907-7.724 0.764-15.102 2.945-21.96 6.481-4.117 2.109-7.969 4.677-11.423 7.592-3.607 3.006-6.858 6.45-9.691 10.262-4.8 6.461-8.305 13.869-10.577 22.673-1.712 7.612-1.997 15.326-0.734 23.641 1.315 6.95 3.77 13.533 7.337 19.606 3.342 5.645 7.398 10.649 12.086 14.857 0.336 0.296 0.662 0.56 0.999 0.836 5.024 3.964 10.73 7.123 16.936 9.375 5.34 1.936 11.107 3.383 17.17 4.3 5.38 0.805 10.842 1.233 16.223 1.253 5.279 0.031 10.598-0.285 15.734-0.927 3.169-0.397 6.328-0.927 9.579-1.641-0.183 0.927-0.367 1.855-0.581 2.812-0.53 2.537-1.192 5.095-1.926 7.663-0.744 2.629-1.61 5.268-2.517 7.836-0.917 2.568-1.926 5.115-3.067 7.704-1.172 2.67-2.425 5.299-3.73 7.887-1.335 2.619-2.721 5.187-4.127 7.673-2.904 5.136-5.89 9.956-8.764 14.358-2.914 4.494-5.747 8.59-8.325 12.187l-3.73 5.136c-8.336 0.132-15.672-0.071-22.337-0.622-11.433-1.182-21.664-3.312-30.509-6.359-9.283-3.149-18.139-7.48-26.229-12.86zM513.266 18.335c-257.149 0-473.405 200.675-492.307 456.846-0.887 12.198-1.345 24.579-1.345 36.817 0 11.26 9.12 20.38 20.38 20.38 11.25 0 20.38-9.12 20.38-20.38 0-11.25 0.418-22.632 1.233-33.821 17.344-234.996 215.736-419.081 451.659-419.081 249.73 0 452.902 203.172 452.902 452.902 0 249.72-203.172 452.902-452.902 452.902-5.778 0-11.545-0.112-17.262-0.336-21.43-0.795-42.911-3.118-63.862-6.909-20.564-3.74-40.985-9.018-60.693-15.734-9.701-3.312-19.494-7.031-29.083-11.077-9.467-3.995-18.944-8.376-28.104-12.992-9.12-4.647-18.139-9.67-26.831-14.929-8.417-5.105-16.987-10.628-25.486-16.437-2.12-1.651-11.342-8.814-24.242-19.025-6.145-4.881-11.943-10.567-18.373-16.916-5.472-5.38-10.791-11.046-15.815-16.844-5.166-5.961-10.312-12.412-14.99-18.76-2.741-3.923-5.411-7.928-8.009-12.024-2.609-4.117-5.156-8.336-7.724-12.778-4.372-7.429-8.437-15.326-11.922-23.071-3.332-7.857-6.134-15.683-8.346-23.223-2.12-7.327-3.954-14.98-5.38-22.327-1.233-7.164-2.181-14.256-2.823-21.104-0.622-6.736-1.029-13.645-1.202-20.533-0.153-6.827-0.051-13.716 0.306-20.268 0.499-7.337 1.264-14.042 2.364-20.584 1.090-6.562 2.69-13.42 4.728-20.319 2.079-6.94 4.555-14.001 7.541-21.471 3.108-7.602 6.603-15.285 10.302-22.602 4.096-7.928 8.621-15.683 13.828-23.713 5.391-8.336 11.882-17.242 19.27-26.474 3.954-4.952 8.193-9.864 12.921-14.99 4.932-5.329 10.486-10.954 16.722-16.905 7.317-6.726 15.672-14.103 25.547-22.51 5.014-4.259 10.516-8.886 16.63-13.94 6.094-5.024 13.094-10.628 20.717-16.528 1.641-1.202 3.302-2.425 5.003-3.648 0.622 5.87 1.447 11.647 2.568 17.792 1.090 5.706 2.283 11.158 3.567 16.365 1.315 5.258 2.69 10.2 4.147 14.847 1.447 4.657 2.976 9.059 4.524 13.217 1.569 4.178 3.179 8.122 4.82 11.861 3.016 6.868 6.277 13.706 9.701 20.309 3.281 6.338 6.766 12.452 10.363 18.2 7.49 11.872 15.489 22.123 24.467 31.325 0.296 0.306 0.611 0.611 0.937 0.897l14.592 13.176c0.275 0.245 0.54 0.479 0.815 0.703 4.229 3.434 8.672 6.705 13.268 9.793 11.117 7.378 23.152 13.288 35.696 17.537 11.545 3.974 24.13 6.644 38.753 8.213-0.693 1.151-1.457 2.405-2.089 3.495-2.751 4.698-5.014 8.743-6.94 12.34-3.832 7.174-6.522 12.463-9.049 17.874-2.588 5.564-5.003 11.27-7.225 17.079-2.211 5.808-4.198 11.729-6.033 17.792-1.773 5.89-3.404 12.065-4.779 18.251-1.386 6.033-2.619 12.126-3.679 18.383-1.202 7.174-1.916 13.92-2.201 20.625-0.336 7.683 0.041 15.509 1.111 23.295 1.070 7.704 2.792 15.397 5.146 22.867 2.16 6.909 4.81 13.634 8.183 20.615 6.41 12.238 14.256 22.969 23.906 32.446 9.181 8.336 19.229 15.102 29.857 20.105 9.956 4.687 20.645 8.111 32.079 10.221 7.704 1.294 15.509 1.957 23.397 1.957 2.374 0 4.759-0.061 7.153-0.183 9.263-0.56 18.689-2.069 28.461-4.575 9.11-2.548 17.609-5.849 25.282-9.834 7.867-4.076 15.204-9.059 21.929-14.867 5.951-5.238 11.464-11.067 16.376-17.303 4.738-6.043 8.723-12.35 11.81-18.719 3.128-6.43 5.513-12.972 7.317-20.105 1.62-6.542 2.731-13.736 3.342-21.685 0.448-7.215 0.346-14.001-0.316-20.747-0.693-7.255-2.12-14.806-4.209-22.367-1.009-3.719-2.211-7.48-3.536-11.23-1.284-3.658-2.711-7.337-4.209-10.954-1.478-3.587-3.037-7.184-4.687-10.791-1.702-3.719-3.516-7.388-5.605-11.26-1.946-3.475-3.964-6.97-6.094-10.516-2.058-3.404-4.198-6.848-6.369-10.323-5.951-9.548-18.516-12.463-28.074-6.512-9.548 5.951-12.463 18.516-6.512 28.064 2.069 3.332 4.107 6.603 6.063 9.854 1.895 3.118 3.679 6.226 5.248 9.049 1.539 2.843 2.955 5.727 4.29 8.641 1.427 3.088 2.762 6.185 4.056 9.355 1.243 2.986 2.395 5.971 3.454 8.967 1.009 2.833 1.906 5.635 2.67 8.458 1.478 5.35 2.466 10.557 2.945 15.499 0.448 4.586 0.51 9.263 0.224 14.001-0.428 5.391-1.182 10.353-2.232 14.613-1.090 4.3-2.527 8.254-4.433 12.167-1.834 3.791-4.259 7.612-7.204 11.352-3.363 4.29-7.143 8.285-11.117 11.78-4.188 3.628-8.876 6.797-13.899 9.395-5.187 2.69-11.067 4.963-17.048 6.654-6.868 1.753-13.747 2.853-20.197 3.251-7.113 0.367-14.368-0.071-21.165-1.213-7.683-1.427-15.031-3.76-21.817-6.96-6.98-3.281-13.655-7.795-19.239-12.84-6.022-5.941-11.352-13.268-15.479-21.124-2.211-4.596-4.127-9.477-5.717-14.531-1.671-5.319-2.894-10.791-3.648-16.253-0.734-5.35-0.999-10.72-0.774-15.978 0.214-4.993 0.764-10.119 1.681-15.601 0.927-5.452 1.997-10.771 3.22-16.141 1.172-5.228 2.527-10.384 4.066-15.458 1.539-5.136 3.23-10.149 5.105-15.051 1.855-4.891 3.872-9.67 6.063-14.348 2.252-4.82 4.637-9.538 8.040-15.907 1.722-3.2 3.75-6.807 6.185-10.985 2.517-4.3 5.482-9.171 8.825-14.511 2.334-3.556 4.738-6.929 7.215-10.262 21.848-3.19 42.575-7.367 61.773-11.433l4.3-0.856c20.075-3.974 39.039-7.714 68.233-12.116 89.174-15.723 179.133 22.632 180.020 23.009 6.552 2.863 14.154 2.069 19.993-2.109 5.829-4.158 9.039-11.097 8.458-18.24-0.408-4.932-11.433-121.181-143.977-173.060-15.856-6.206-29.541-15.306-42.391-26.026 0.448-0.255 1.009-0.591 1.437-0.836l5.89-3.24c3.077-1.671 4.871-2.598 4.881-2.609l4.963-2.568c3.057-1.59 7.327-3.882 12.086-6.44l7.459-3.974c2.772-1.467 5.533-2.976 8.193-4.535 2.945-1.732 5.768-3.577 8.59-5.594 2.66-1.957 5.136-3.944 7.683-6.206 4.555-4.209 8.397-8.784 11.8-14.256 2.792-4.851 4.932-9.956 6.369-15.163 1.529-5.533 2.283-11.199 2.242-17.323-0.173-6.603-1.63-13.278-4.565-20.411-2.782-6.226-6.583-12.116-11.321-17.527-4.392-4.993-9.477-9.467-15.622-13.716-5.931-4.066-12.697-7.602-20.747-10.781-3.923-1.416-8.142-2.619-12.514-3.567-4.045-0.866-8.305-1.59-12.86-2.201-4.433-0.601-9.028-1.101-13.685-1.437-2.548-0.194-5.126-0.336-7.673-0.418 1.743-3.302 3.23-6.746 4.423-10.292 1.579-4.677 2.67-9.507 3.261-14.817 0.846-9.518-0.061-18.74-3.037-28.288-3.332-9.253-8.387-17.344-15.092-24.090-3.811-3.821-8.305-7.204-13.349-10.058-5.207-2.955-11.199-5.35-18.291-7.266-7.704-1.875-15.591-2.874-24.018-2.976-7.694 0.132-15.805 0.988-24.803 2.711-8.274 1.875-16.060 4.392-23.162 7.49-6.104 2.68-11.973 5.686-17.925 9.212-4.922 2.914-9.365 5.757-13.359 8.437-4.168 2.762-8.060 5.513-11.749 8.234-3.75 2.772-7.306 5.594-10.73 8.529-3.342 2.904-6.501 5.829-9.375 8.702-0.245 0.245-0.499 0.499-0.744 0.744-1.427-2.232-3.006-4.361-4.728-6.369-5.442-6.338-12.187-11.607-20.044-15.662-7.948-4.117-16.671-6.756-25.914-7.846-5.37-0.632-10.883-0.489-16.335 0.387-5.095 0.825-10.292 2.272-15.897 4.473-5.421 2.293-10.853 5.309-16.131 8.998-5.462 3.821-11.016 8.601-16.478 14.195-2.986 3.047-6.073 6.583-9.151 10.496-3.067 3.893-6.185 8.274-9.273 12.982-3.118 4.779-6.328 10.139-9.406 15.693-3.393 5.951-6.726 12.35-9.864 18.933-1.671 3.444-3.281 6.99-4.83 10.639-1.529 3.597-3.047 7.286-4.484 11.016-1.467 3.832-2.863 7.775-4.188 11.872-1.284 3.995-2.476 8.091-3.607 12.3-1.080 4.076-2.079 8.193-2.986 12.31-0.897 4.107-1.692 8.203-2.415 12.32-0.703 4.015-1.325 8.009-1.895 12.126-0.53 4.045-0.988 8.162-1.437 13.349-0.214 5.289-0.326 10.486-0.316 15.53 0 2.446 0.071 4.698 0.112 7.052-10.027 6.715-19.606 13.42-28.716 20.146-8.376 6.481-15.703 12.361-22.102 17.629-6.298 5.207-11.953 9.956-17.099 14.338-10.323 8.784-19.056 16.498-27.004 23.804-7.123 6.807-13.268 13.013-18.791 18.994-5.319 5.768-10.302 11.545-14.796 17.16-8.244 10.302-15.53 20.319-21.654 29.786-5.849 9.008-11.168 18.149-15.927 27.32-4.28 8.499-8.234 17.17-11.78 25.893-3.505 8.743-6.389 16.936-8.825 25.129-2.527 8.55-4.504 17.028-5.87 25.2-1.304 7.846-2.232 15.886-2.833 24.823-0.428 7.846-0.56 15.825-0.367 23.723 0.194 7.836 0.642 15.693 1.365 23.356 0.734 7.887 1.814 16.039 3.302 24.63 1.732 8.978 3.862 17.833 6.338 26.413 2.67 9.090 6.012 18.414 10.129 28.135 4.27 9.497 9.028 18.719 14.073 27.279 2.772 4.789 5.594 9.467 8.488 14.062 2.925 4.626 5.941 9.13 9.334 13.971 5.605 7.612 11.413 14.908 17.293 21.705 5.757 6.624 11.81 13.074 18.332 19.504 6.644 6.522 13.482 13.268 21.359 19.504 14.99 11.882 25.088 19.677 25.088 19.677 0.306 0.245 0.622 0.479 0.958 0.703 9.273 6.348 18.658 12.412 27.87 17.986 9.538 5.798 19.453 11.311 29.531 16.447 10.048 5.054 20.37 9.834 30.693 14.185 10.465 4.423 21.165 8.478 31.783 12.106 21.613 7.357 44.011 13.166 66.572 17.252 22.836 4.117 46.243 6.664 69.578 7.541 6.247 0.234 12.503 0.357 18.801 0.357 272.2 0 493.663-221.453 493.663-493.663 0-272.2-221.463-493.663-493.663-493.663z"></path>
<path fill="#fafafa" d="M1261.977 452.117h6.287c8.58 0 15.56-6.98 15.56-15.56v-86.902h105.754c8.58 0 15.56-6.98 15.56-15.571v-5.961c0-8.58-6.98-15.571-15.56-15.571h-105.754v-74.47h119.898c8.57 0 15.56-6.98 15.56-15.56v-5.971c0-8.58-6.99-15.571-15.56-15.571h-141.745c-8.58 0-15.571 6.99-15.571 15.571v220.006c0 8.58 6.99 15.56 15.571 15.56z"></path>
<path fill="#fafafa" d="M1540.5 262.097l40.078 86.606h-80.156zM1422.090 444.929c2.874 4.504 7.785 7.184 13.125 7.184h7.225c6.033 0 11.576-3.536 14.113-8.998l26.617-57.31h114.66l26.607 57.299c2.537 5.472 8.081 9.008 14.124 9.008h7.225c5.34 0 10.251-2.68 13.115-7.174 2.874-4.504 3.251-10.088 1.009-14.939l-102.156-220.006c-2.537-5.472-8.081-9.008-14.103-9.008h-6.298c-6.022 0-11.566 3.536-14.103 9.008l-102.146 219.985c-2.252 4.84-1.885 10.425 0.978 14.939z"></path>
<path fill="#fafafa" d="M1737.785 238.084h53.264c21.674 0 38.142 4.586 48.913 13.634 10.262 8.621 15.041 20.411 15.041 37.113 0 16.712-4.779 28.502-15.041 37.113-10.771 9.049-27.238 13.634-48.913 13.634h-53.264zM1737.785 436.558v-59.867h52.632c6.664 0 12.942-0.326 18.709-0.958l50.38 69.915c2.914 4.056 7.643 6.471 12.636 6.471h7.846c5.87 0 11.189-3.24 13.869-8.499 2.66-5.228 2.181-11.423-1.243-16.172l-45.255-62.67c10.995-5.513 20.217-12.911 27.524-22.082 11.637-14.603 17.537-32.731 17.537-53.865 0-27.575-9.62-49.534-28.583-65.258-18.088-14.99-42.789-22.592-73.42-22.592h-74.49c-8.57 0-15.56 6.98-15.56 15.571v220.006c0 8.58 6.99 15.56 15.56 15.56h6.298c8.57 0 15.56-6.98 15.56-15.56z"></path>
<path fill="#fafafa" d="M2183.347 200.985h-5.34c-5.574 0-10.761 3.006-13.522 7.846l-89.572 156.745-89.572-156.745c-2.762-4.84-7.938-7.846-13.512-7.846h-5.34c-8.59 0-15.581 6.98-15.581 15.56v220.006c0 8.58 6.99 15.571 15.581 15.571h6.277c8.59 0 15.571-6.99 15.571-15.571v-147.452l71.199 124.096c2.772 4.81 7.938 7.806 13.492 7.806h3.77c5.574 0 10.761-3.006 13.512-7.836l71.178-124.514v147.9c0 8.58 6.99 15.571 15.571 15.571h6.287c8.59 0 15.56-6.99 15.56-15.571v-220.006c0-8.58-6.97-15.56-15.56-15.56z"></path>
<path fill="#fafafa" d="M2318.705 348.698l40.078-86.606 40.068 86.606zM2464.067 452.118c5.34 0 10.251-2.69 13.135-7.204 2.863-4.504 3.23-10.088 0.978-14.908l-102.146-220.026c-2.548-5.462-8.091-8.998-14.113-8.998h-6.287c-6.033 0-11.576 3.546-14.113 9.018l-102.146 220.006c-2.242 4.84-1.875 10.404 0.999 14.918 2.874 4.504 7.775 7.194 13.125 7.194h7.225c6.033 0 11.576-3.536 14.113-9.008l26.627-57.31h114.65l26.617 57.31c2.537 5.472 8.081 9.008 14.113 9.008z"></path>
<path fill="#fafafa" d="M1399.32 792.169h-115.495v-198.474c0-8.57-6.98-15.56-15.56-15.56h-6.287c-8.58 0-15.571 6.99-15.571 15.56v220.006c0 8.58 6.99 15.571 15.571 15.571h137.343c8.58 0 15.56-6.99 15.56-15.571v-5.971c0-8.58-6.98-15.56-15.56-15.56z"></path>
<path fill="#fafafa" d="M1625.236 749.458c-7.857 13.512-18.801 24.273-32.507 31.977-13.808 7.745-29.49 11.668-46.6 11.668s-32.792-3.923-46.589-11.668c-13.726-7.704-24.66-18.465-32.517-31.977-7.877-13.533-11.872-28.94-11.872-45.754 0-16.824 3.995-32.221 11.882-45.764 7.846-13.522 18.78-24.273 32.507-31.967 13.797-7.755 29.48-11.688 46.589-11.688s32.782 3.933 46.6 11.688c13.706 7.694 24.64 18.434 32.496 31.967 7.887 13.563 11.882 28.95 11.882 45.764 0 16.793-3.995 32.191-11.872 45.754zM1657.631 639.119c-11.219-19.208-26.821-34.514-46.375-45.489-19.463-10.903-41.372-16.437-65.125-16.437-23.763 0-45.672 5.533-65.125 16.447-19.555 10.965-35.156 26.27-46.365 45.479-11.23 19.208-16.905 40.924-16.905 64.585 0 23.641 5.676 45.377 16.895 64.565 11.219 19.219 26.821 34.524 46.375 45.499 19.443 10.903 41.352 16.447 65.125 16.447 23.753 0 45.672-5.543 65.125-16.447 19.565-10.975 35.156-26.28 46.375-45.489 11.209-19.198 16.895-40.934 16.895-64.575 0-23.651-5.686-45.377-16.895-64.585z"></path>
<path fill="#fafafa" d="M1904.151 578.136h-6.287c-8.58 0-15.571 6.99-15.571 15.56v127.601c0 24.752-5.431 43.196-16.141 54.833-10.384 11.26-26.148 16.977-46.854 16.977s-36.481-5.717-46.865-16.977c-10.72-11.637-16.151-30.071-16.151-54.833v-127.601c0-8.57-6.98-15.56-15.56-15.56h-6.287c-8.58 0-15.571 6.99-15.571 15.56v127.917c0 34.575 8.947 61.538 26.576 80.156 17.874 18.882 42.717 28.441 73.858 28.441 31.131 0 55.975-9.558 73.848-28.441 17.629-18.617 26.566-45.581 26.566-80.156v-127.917c0-8.57-6.98-15.56-15.56-15.56z"></path>
<path fill="#fafafa" d="M2149.651 792.169h-132.462l141.654-184.259c2.079-2.711 3.23-6.084 3.23-9.497v-4.718c0-8.57-6.98-15.56-15.571-15.56h-168.148c-8.57 0-15.56 6.99-15.56 15.56v5.971c0 8.58 6.99 15.571 15.56 15.571h127.754l-141.684 184.289c-2.069 2.69-3.2 6.053-3.2 9.456v4.718c0 8.58 6.98 15.571 15.56 15.571h172.866c8.59 0 15.56-6.99 15.56-15.571v-5.971c0-8.58-6.97-15.56-15.56-15.56z"></path>
<path fill="#fafafa" d="M2058.189 557.318h10.058c3.862 0 7.571-1.427 10.425-4.005l38.346-34.575c4.759-4.29 6.399-11.179 4.107-17.13-2.293-5.982-8.132-9.997-14.531-9.997h-8.488c-3.638 0-7.194 1.294-9.986 3.638l-24.895 20.859-24.884-20.849c-2.802-2.354-6.348-3.648-10.007-3.648h-8.488c-6.399 0-12.238 4.015-14.521 9.997-2.293 5.961-0.642 12.85 4.107 17.14l38.356 34.575c2.863 2.578 6.552 3.995 10.404 3.995z"></path>
<path fill="#fafafa" d="M2402.087 578.136h-6.287c-8.58 0-15.571 6.99-15.571 15.56v162.829l-133.338-172.336c-2.925-3.791-7.531-6.053-12.32-6.053h-5.35c-8.58 0-15.56 6.99-15.56 15.56v220.006c0 8.58 6.98 15.571 15.56 15.571h6.287c8.58 0 15.571-6.99 15.571-15.571v-162.819l133.349 172.336c2.925 3.781 7.531 6.053 12.32 6.053h5.34c8.58 0 15.56-6.99 15.56-15.571v-220.006c0-8.57-6.98-15.56-15.56-15.56z"></path>
<path fill="#fafafa" d="M2563.378 557.318h9.436c3.291 0 6.573-1.070 9.202-3.016l47.15-34.575c5.442-4.005 7.683-10.995 5.584-17.364-2.089-6.43-8.030-10.751-14.796-10.751h-12.575c-3.475 0-6.889 1.192-9.609 3.332l-44.001 34.565c-5.207 4.096-7.255 11.046-5.085 17.364 2.171 6.247 8.091 10.445 14.694 10.445z"></path>
<path fill="#fafafa" d="M2537.455 725.854l40.078-86.606 40.068 86.606zM2696.921 807.161l-102.136-220.006c-2.548-5.482-8.081-9.018-14.124-9.018h-6.277c-6.043 0-11.576 3.536-14.124 9.018l-102.126 219.985c-2.262 4.83-1.906 10.414 0.988 14.939 2.863 4.504 7.765 7.184 13.115 7.184h7.225c6.022 0 11.556-3.516 14.113-8.998l26.627-57.31h114.65l26.617 57.31c2.537 5.462 8.081 8.998 14.113 8.998h7.235c5.319 0 10.231-2.68 13.125-7.204 2.874-4.504 3.23-10.088 0.978-14.898z"></path>
</svg>
